<?xml version="1.0" encoding="UTF-8" standalone="no"?>
<!-- Created with Inkscape (http://www.inkscape.org/) -->

<svg
   xmlns:dc="http://purl.org/dc/elements/1.1/"
   xmlns:cc="http://creativecommons.org/ns#"
   xmlns:rdf="http://www.w3.org/1999/02/22-rdf-syntax-ns#"
   xmlns:svg="http://www.w3.org/2000/svg"
   xmlns="http://www.w3.org/2000/svg"
   xmlns:sodipodi="http://sodipodi.sourceforge.net/DTD/sodipodi-0.dtd"
   xmlns:inkscape="http://www.inkscape.org/namespaces/inkscape"
   width="384.75037"
   height="207.96062"
   id="svg3949"
   version="1.1"
   inkscape:version="0.48.2 r9819"
   sodipodi:docname="SVGOutput.svg">
  <defs
     id="defs3951" />
  <sodipodi:namedview
     id="base"
     pagecolor="#ffffff"
     bordercolor="#666666"
     borderopacity="1.0"
     inkscape:pageopacity="0.0"
     inkscape:pageshadow="2"
     inkscape:zoom="2.4775"
     inkscape:cx="190.10247"
     inkscape:cy="75.524217"
     inkscape:document-units="px"
     inkscape:current-layer="layer1"
     showgrid="false"
     fit-margin-top="0"
     fit-margin-left="0"
     fit-margin-right="0"
     fit-margin-bottom="0"
     inkscape:window-width="1453"
     inkscape:window-height="1155"
     inkscape:window-x="86"
     inkscape:window-y="167"
     inkscape:window-maximized="0" />
  <metadata
     id="metadata3954">
    <rdf:RDF>
      <cc:Work
         rdf:about="">
        <dc:format>image/svg+xml</dc:format>
        <dc:type
           rdf:resource="http://purl.org/dc/dcmitype/StillImage" />
        <dc:title></dc:title>
      </cc:Work>
    </rdf:RDF>
  </metadata>
  <g
     inkscape:label="Layer 1"
     inkscape:groupmode="layer"
     id="layer1"
     transform="translate(-23.971937,-671.48985)">
    <g
       transform="scale(0.98235639,1.0179605)"
       style="font-size:52.61524582px;font-style:normal;font-variant:normal;font-weight:normal;font-stretch:normal;line-height:125%;letter-spacing:0px;word-spacing:0px;fill:#5822c8;fill-opacity:1;stroke:none;display:inline;font-family:P22 Bayer Universal;-inkscape-font-specification:P22 Bayer Universal"
       id="text3786">
      <path
         d="m 94.485976,746.96259 -23.48744,0 0,-10.79665 c -5.7e-5,-5.68243 -1.957341,-10.60721 -5.871861,-14.77436 -3.788343,-4.29337 -8.397433,-6.37693 -13.827283,-6.25069 -0.378866,3e-5 -1.325939,3e-5 -2.841223,0 l -0.189414,0 0,31.8217 -23.86627,0 0,-87.32025 23.86627,0 0,32.20053 0.189414,-0.18942 c 0.378796,6e-5 1.32587,6e-5 2.841223,0 4.924745,0.12633 9.218143,-1.64154 12.880209,-5.30361 3.788244,-3.66196 5.998082,-8.08163 6.62952,-13.25904 l 0,-13.44846 23.48744,0 0,11.36489 c -0.126356,12.88028 -4.92486,23.67691 -14.395528,32.38994 9.596944,8.8394 14.395449,19.76231 14.395528,32.76877 -7.9e-5,1.38905 0.06306,3.22006 0.189415,5.49303 -8e-5,2.65181 -8e-5,4.41968 0,5.30362"
         style="font-size:189.4148407px;fill:#5822c8"
         id="path4071" />
    </g>
    <g
       transform="scale(0.98235639,1.0179605)"
       style="font-size:52.61524582px;font-style:normal;font-variant:normal;font-weight:normal;font-stretch:normal;line-height:125%;letter-spacing:0px;word-spacing:0px;fill:#7c52d3;fill-opacity:1;stroke:none;display:inline;font-family:P22 Bayer Universal;-inkscape-font-specification:P22 Bayer Universal"
       id="text3838">
      <path
         d="m 179.15936,746.7356 -13.70101,0 -0.11049,-25.30267 c -4e-5,-3.46205 -1.21545,-6.4085 -3.64623,-8.83936 -2.43087,-2.43079 -5.37732,-3.6462 -8.83936,-3.64623 -3.16747,3e-5 -5.92977,1.06812 -8.2869,3.20426 -2.35719,2.06255 -3.68309,4.67753 -3.97771,7.84493 l -0.1105,26.73907 -13.92199,0 0,-25.63415 c 0.0737,-7.21877 2.68863,-13.33266 7.84493,-18.34167 5.15628,-5.08258 11.30699,-7.62389 18.45217,-7.62394 7.29243,5e-5 13.47997,2.57819 18.56265,7.73444 5.15624,5.08267 7.73438,11.27021 7.73444,18.56265 l 0,25.30267"
         style="fill-opacity:1;stroke:none;stroke-opacity:1;fill:#5822c8"
         id="path4076" />
      <path
         d="m 241.16436,672.92695 0,49.16893 c -0.29471,6.99785 -2.94651,12.96441 -7.95543,17.8997 -5.00901,4.86165 -11.04923,7.29248 -18.12068,7.29248 -7.14518,0 -13.25906,-2.54132 -18.34167,-7.62395 -5.08264,-5.08262 -7.62396,-11.23334 -7.62395,-18.45216 -10e-6,-7.14512 2.54131,-13.259 7.62395,-18.34167 5.08261,-5.08259 11.19649,-7.6239 18.34167,-7.62395 4.34598,5e-5 8.39735,0.99448 12.15412,2.98328 l 0,-25.30266 13.92199,0 m -13.70101,48.285 c -4e-5,-3.3884 -1.21545,-6.26118 -3.64624,-8.61838 -2.3572,-2.43079 -5.26681,-3.6462 -8.72886,-3.64623 -3.38845,3e-5 -6.29807,1.21544 -8.72887,3.64623 -2.35718,2.3572 -3.53576,5.22998 -3.53574,8.61838 -2e-5,3.4621 1.17856,6.40855 3.53574,8.83936 2.4308,2.35717 5.34042,3.53575 8.72887,3.53574 3.46205,10e-6 6.37166,-1.17857 8.72886,-3.53574 2.43079,-2.43081 3.6462,-5.37726 3.64624,-8.83936"
         style="fill-opacity:1;fill:#5822c8"
         id="path4078" />
      <path
         d="m 304.4262,768.94449 -14.03249,0 0,-25.19218 c -3.83043,2.06252 -7.91863,3.09378 -12.26461,3.09378 -7.14517,0 -13.25905,-2.50449 -18.34167,-7.51346 -5.08264,-5.08262 -7.62395,-11.23333 -7.62395,-18.45216 l 0,-25.08168 13.59052,0 0.11049,25.08168 c -2e-5,3.4621 1.17856,6.40856 3.53575,8.83936 2.43079,2.35718 5.34041,3.53576 8.72886,3.53574 3.1674,2e-5 5.89287,-1.03124 8.17641,-3.09377 2.35712,-2.13616 3.71985,-4.75114 4.0882,-7.84493 l -0.11049,-26.51808 14.14298,0 0,73.1457"
         style="fill-opacity:1;fill:#5822c8"
         id="path4080" />
    </g>
    <g
       style="display:inline"
       id="g3857"
       transform="translate(-49.620409,-79.960683)">
      <g
         id="g3877">
        <path
           transform="translate(8.5714203,652.36203)"
           style="fill:#5822c8;fill-opacity:1;fill-rule:nonzero;stroke:none"
           d="m 142.09245,164.9635 12.65207,0 0,22.87105 -12.65207,0 z"
           id="rect3847" />
        <path
           transform="matrix(0.88608264,0,0,0.83544934,-187.84664,603.43866)"
           style="fill:#437020;fill-opacity:1;stroke:#ffffff;stroke-width:2.71391988;stroke-linecap:square;stroke-linejoin:round;stroke-miterlimit:1;stroke-dashoffset:0;stroke-opacity:1"
           d="m 417.84713,227.17628 c 0,16.28422 -12.44663,29.48518 -27.80032,29.48518 -15.35368,0 -27.80031,-13.20096 -27.80031,-29.48518 0,-16.28421 12.44663,-29.48518 27.80031,-29.48518 15.35369,0 27.80032,13.20097 27.80032,29.48518 z"
           id="path3784" />
      </g>
    </g>
    <g
       style="display:inline"
       id="g3794"
       transform="matrix(0.37897499,0,0,0.37897499,21.228171,480.12596)">
      <g
         transform="scale(0.98235639,1.0179605)"
         style="font-size:137.22621155px;font-style:normal;font-variant:normal;font-weight:normal;font-stretch:normal;line-height:125%;letter-spacing:0px;word-spacing:0px;fill:#000000;fill-opacity:1;stroke:none;display:inline;font-family:P22 Bayer Universal;-inkscape-font-specification:P22 Bayer Universal"
         id="text3796">
        <path
           d="m 306.74274,805.38853 0,140.30008 c -0.32966,24.37144 -9.22191,45.28469 -26.67677,62.73979 -17.45546,17.1259 -38.53338,25.6888 -63.23384,25.6888 -22.39553,0 -41.99142,-7.2456 -58.78771,-21.7366 -16.79665,15.1497 -36.72188,22.7246 -59.775741,22.7246 -24.70081,0 -46.108078,-8.5629 -64.221869,-25.6887 C 16.262259,991.96133 7.3700093,971.21275 7.370034,947.17065 l 0,-141.28811 61.257782,0 0,140.30008 c -8.6e-5,7.90431 2.799326,14.65584 8.398245,20.25459 5.598729,5.5989 12.350252,8.39831 20.254589,8.39825 8.23345,6e-5 15.14964,-2.79935 20.7486,-8.39825 5.59869,-5.59875 8.3981,-12.35028 8.39825,-20.25459 -1.5e-4,3.9522 -1.5e-4,-19.43112 0,-70.15004 -1.5e-4,-45.77846 -1.5e-4,-69.16178 0,-70.15004 l 61.25778,0 0,143.75819 c 0.98782,6.91627 4.11658,12.67977 9.38627,17.2905 5.26927,4.61086 11.69145,6.91626 19.26656,6.9162 7.90399,6e-5 14.49084,-2.79935 19.76058,-8.39824 5.59857,-5.59876 8.39798,-12.51495 8.39824,-20.74861 -2.6e-4,3.62286 -2.6e-4,-42.81445 0,-139.31205 l 62.24581,0"
           style="font-size:494.01437377999997125px;fill:#5822c8;fill-opacity:1"
           id="path4096" />
      </g>
      <g
         transform="translate(312.83728,2.1804819)"
         id="g3804">
        <g
           transform="scale(0.98235639,1.0179605)"
           style="font-size:137.22621155px;font-style:normal;font-variant:normal;font-weight:normal;font-stretch:normal;line-height:125%;letter-spacing:0px;word-spacing:0px;fill:#000000;fill-opacity:1;stroke:none;display:inline;font-family:P22 Bayer Universal;-inkscape-font-specification:P22 Bayer Universal"
           id="text3806">
          <path
             d="m 223.21916,1031.4158 -35.73369,0 -0.28818,-65.99209 c -1.1e-4,-9.02941 -3.17003,-16.71407 -9.50977,-23.054 -6.33995,-6.33975 -14.02461,-9.50968 -23.054,-9.50977 -8.26109,9e-5 -15.46545,2.78578 -21.61312,8.35707 -6.14779,5.37935 -9.60588,12.19948 -10.3743,20.46042 l -0.28817,69.73837 -36.310047,0 0,-66.85662 c 0.192102,-18.82734 7.012236,-34.77301 20.460427,-47.83704 13.44811,-13.25592 29.48983,-19.88394 48.12521,-19.88407 19.01945,1.3e-4 35.15723,6.72421 48.4134,20.17224 13.44802,13.25615 20.17209,29.39393 20.17224,48.4134 l 0,65.99209"
             style="font-size:288.17495728000000099px;font-style:normal;font-variant:normal;font-weight:normal;font-stretch:normal;text-align:start;line-height:125%;writing-mode:lr-tb;text-anchor:start;font-family:P22 Bayer Universal;-inkscape-font-specification:P22 Bayer Universal;fill:#5822c8;fill-opacity:1"
             id="path4083" />
          <path
             d="m 358.71092,1031.4158 -35.73369,0 0,-16.426 c -9e-5,-8.6452 -2.97789,-16.13777 -8.93342,-22.47765 -5.76357,-6.53192 -12.77582,-9.70184 -21.03678,-9.50977 -0.5764,5e-5 -2.01727,5e-5 -4.32262,0 l -0.28817,0 0,48.41342 -36.31005,0 0,-132.84868 36.31005,0 0,48.98974 0.28817,-0.28818 c 0.5763,9e-5 2.01717,9e-5 4.32262,0 7.49249,0.1922 14.02445,-2.49743 19.5959,-8.06889 5.76342,-5.57129 9.12546,-12.29537 10.08612,-20.17225 l 0,-20.46042 35.7337,0 0,17.29049 c -0.19224,19.596 -7.49266,36.02195 -21.9013,49.27792 14.60075,13.44822 21.90118,30.06629 21.9013,49.85427 -1.2e-4,2.1133 0.0959,4.899 0.28817,8.3571 -1.2e-4,4.0344 -1.2e-4,6.7241 0,8.0689"
             style="font-size:288.17495728000000099px;font-style:normal;font-variant:normal;font-weight:normal;font-stretch:normal;text-align:start;line-height:125%;writing-mode:lr-tb;text-anchor:start;font-family:P22 Bayer Universal;-inkscape-font-specification:P22 Bayer Universal;fill:#5822c8;fill-opacity:1"
             id="path4085" />
          <path
             d="m 424.39679,1031.4158 -36.59822,0 0,-192.78907 36.59822,0 0,192.78907"
             style="font-size:288.17495728000000099px;font-style:normal;font-variant:normal;font-weight:normal;font-stretch:normal;text-align:start;line-height:125%;writing-mode:lr-tb;text-anchor:start;font-family:P22 Bayer Universal;-inkscape-font-specification:P22 Bayer Universal;fill:#5822c8;fill-opacity:1"
             id="path4087" />
          <path
             d="m 585.80178,978.67975 -97.11496,0.28818 c 1.92112,6.14778 5.85951,11.33492 11.81518,15.56145 6.14766,4.2266 12.77568,6.33992 19.88407,6.33982 9.22151,10e-5 17.57857,-3.45804 25.07122,-10.37427 9.02937,9.22163 16.61797,16.81027 22.76582,22.76577 -13.25616,13.064 -29.10577,19.5959 -47.54887,19.5959 -18.63537,0 -34.58104,-6.628 -47.83704,-19.884 -13.25607,-13.25604 -19.88408,-29.20171 -19.88407,-47.83707 -10e-6,-18.82734 6.628,-34.86907 19.88407,-48.12522 13.256,-13.25592 29.20167,-19.88393 47.83704,-19.88407 26.12776,1.4e-4 44.95517,10.95077 56.4823,32.85195 5.95547,11.33497 8.93327,24.11071 8.93342,38.32727 -1.5e-4,3.07392 -0.0962,6.53202 -0.28818,10.37429 m -33.71647,-28.52932 c -6.33995,-13.06383 -16.90635,-19.59579 -31.69924,-19.59589 -14.60093,10e-5 -25.16733,6.53206 -31.69925,19.59589 l 63.39849,0"
             style="font-size:288.17495728000000099px;font-style:normal;font-variant:normal;font-weight:normal;font-stretch:normal;text-align:start;line-height:125%;writing-mode:lr-tb;text-anchor:start;font-family:P22 Bayer Universal;-inkscape-font-specification:P22 Bayer Universal;fill:#5822c8;fill-opacity:1"
             id="path4089" />
          <path
             d="m 722.38771,989.05405 c -1.2e-4,11.14275 -3.74639,20.84465 -11.23882,29.10565 -7.30054,8.261 -16.42607,12.7758 -27.37662,13.5442 -5.18723,0 -12.29554,0 -21.32495,0 -9.60588,0 -16.04179,0 -19.30772,0 -18.63534,-2.3054 -27.95299,-13.0639 -27.95297,-32.27555 -2e-5,-2.30536 -2e-5,-4.99499 0,-8.0689 l 34.00464,0.28818 c -5e-5,1.15274 0.19207,2.11332 0.57635,2.88175 0.76842,1.9212 2.11323,2.88178 4.03445,2.88175 l 23.63035,0.28817 c 2.1132,4e-5 3.93831,-0.96055 5.47532,-2.88175 1.72897,-2.11324 2.59349,-4.32258 2.59358,-6.62802 -9e-5,-5.57134 -2.68972,-8.35702 -8.0689,-8.35708 -6.53204,6e-5 -16.23392,6e-5 -29.10567,0 -10.37434,-0.19206 -19.49987,-4.03439 -27.37662,-11.52699 -7.68468,-7.6846 -11.52701,-17.0983 -11.527,-28.24115 -10e-6,-11.14266 3.6502,-20.74848 10.95065,-28.8175 7.49252,-8.26088 16.71411,-12.77562 27.66479,-13.54422 l 43.51442,0 c 6.72398,0.57648 12.77565,4.41881 18.15502,11.527 5.57127,6.91631 8.45302,14.21674 8.64525,21.9013 l 0.28818,7.20437 -31.98742,0 c -0.38432,-5.18705 -2.68972,-7.78062 -6.9162,-7.78072 l -25.07122,0 c -5.1872,10e-5 -7.78077,2.68973 -7.78073,8.0689 -4e-5,2.30549 0.76842,4.41877 2.3054,6.33984 1.53688,1.92126 3.45805,2.88184 5.7635,2.88175 l 26.5121,0.57635 c 10.56632,0.1922 19.98003,4.22665 28.24114,12.10335 8.45302,7.87685 12.67958,17.38661 12.6797,28.52932"
             style="font-size:288.17495728000000099px;font-style:normal;font-variant:normal;font-weight:normal;font-stretch:normal;text-align:start;line-height:125%;writing-mode:lr-tb;text-anchor:start;font-family:P22 Bayer Universal;-inkscape-font-specification:P22 Bayer Universal;fill:#5822c8;fill-opacity:1"
             id="path4091" />
        </g>
      </g>
    </g>
    <g
       style="display:inline"
       id="g3881"
       transform="translate(-2.7827987,38.500856)">
      <path
         transform="translate(8.5714203,652.36203)"
         style="fill:#5822c8;fill-opacity:1;fill-rule:nonzero;stroke:none"
         d="m 142.09245,164.9635 12.65207,0 0,22.87105 -12.65207,0 z"
         id="rect3883" />
      <path
         transform="matrix(0.88608264,0,0,0.83544934,-187.84664,603.43866)"
         style="fill:#437020;fill-opacity:1;stroke:#ffffff;stroke-width:2.71391988;stroke-linecap:square;stroke-linejoin:round;stroke-miterlimit:1;stroke-dashoffset:0;stroke-opacity:1"
         d="m 417.84713,227.17628 c 0,16.28422 -12.44663,29.48518 -27.80032,29.48518 -15.35368,0 -27.80031,-13.20096 -27.80031,-29.48518 0,-16.28421 12.44663,-29.48518 27.80031,-29.48518 15.35369,0 27.80032,13.20097 27.80032,29.48518 z"
         id="path3885" />
    </g>
  </g>
</svg>
